PathFileType	4	(X/Y/Z)	RBDS021\RBDS021runT45.trc
DataRate	CameraRate	NumFrames	NumMarkers	Units	OrigDataRate	OrigDataStartFrame	OrigNumFrames
150.000000	150.000000	6	33	mm	150.000000	3375	4500
Frame#	Time	L.ASIS			L.Heel.Bottom			L.Heel.Lateral			L.Heel.Top			L.Iliac.Crest			L.MT1			L.MT5			L.PSIS			L.Shank.Bottom.Lateral			L.Shank.Bottom.Medial			L.Shank.Top.Lateral			L.Shank.Top.Medial			L.Thigh.Bottom.Lateral			L.Thigh.Bottom.Medial			L.Thigh.Top.Lateral			L.Thigh.Top.Medial			R.ASIS			R.ASY			R.Heel.Bottom			R.Heel.Lateral			R.Heel.Top			R.Iliac.Crest			R.MT1			R.MT5			R.PSIS			R.Shank.Bottom.Lateral			R.Shank.Bottom.Medial			R.Shank.Top.Lateral			R.Shank.Top.Medial			R.Thigh.Bottom.Lateral			R.Thigh.Bottom.Medial			R.Thigh.Top.Lateral			R.Thigh.Top.Medial			
		X1	Y1	Z1	X2	Y2	Z2	X3	Y3	Z3	X4	Y4	Z4	X5	Y5	Z5	X6	Y6	Z6	X7	Y7	Z7	X8	Y8	Z8	X9	Y9	Z9	X10	Y10	Z10	X11	Y11	Z11	X12	Y12	Z12	X13	Y13	Z13	X14	Y14	Z14	X15	Y15	Z15	X16	Y16	Z16	X17	Y17	Z17	X18	Y18	Z18	X19	Y19	Z19	X20	Y20	Z20	X21	Y21	Z21	X22	Y22	Z22	X23	Y23	Z23	X24	Y24	Z24	X25	Y25	Z25	X26	Y26	Z26	X27	Y27	Z27	X28	Y28	Z28	X29	Y29	Z29	X30	Y30	Z30	X31	Y31	Z31	X32	Y32	Z32	X33	Y33	Z33	

3376	22.5	2205.507812338107	958.1755341697406	950.847470735403	1980.487845582653	343.2757770367905	1018.965784673612	2007.516190925847	336.4936226823372	969.2949139657758	2023.631806979022	362.8185538967634	1014.979860812932	2117.702845478912	1036.361524666457	901.8996595112466	2117.681689818605	172.6621690612193	1021.042437178184	2078.300597181505	204.4638296836999	917.9284895457464	2025.22117389986	1004.72029928565	1025.848985193704	2132.187186365724	379.1015728276956	945.1512074271604	2110.043978037619	408.7306050908944	987.2684444999391	2188.194604075171	436.0426703242201	935.9064032252746	2167.068936920765	465.4354495173981	975.6470990706966	2318.29984657765	673.3924493638535	902.1115819854575	2265.603787622499	636.6232600904973	932.6432745131307	2246.864771412546	754.0469287310683	879.4079768062833	2195.209018272994	717.5431872011925	905.1865374427238	2205.108267596919	941.6282766921775	1171.590312084854	1860.79464547736	75.44106355163177	1120.350809372112	1704.802221807662	115.1010160911247	1032.205268381501	1713.189235675826	115.9635901564243	1087.374521601289	1727.798403605995	150.0559369766189	1047.271304540456	2155.864571508924	1012.356913656286	1218.052884384531	1885.8789780517	39.15245334966476	1072.613425004813	1817.748471755164	38.73727241905139	1165.74403962035	2028.547354270079	998.142794585444	1102.276620053881	1803.68198782036	216.7030049531291	1135.64056035184	1793.912247130143	239.4029921013305	1090.720206347423	1840.98678276851	287.9683473195337	1161.80006716399	1826.2095282758	309.2473739999015	1115.036189011656	2044.174389208399	605.6843625672058	1225.51003816875	1981.066415343472	615.4810784317934	1189.761478777641	2050.183057915012	714.3610061777705	1238.228301607191	1993.089810157527	722.9803096243129	1200.503222165852	
3377	22.50666666666667	2208.249236046853	964.7385016758666	950.7599787624746	2006.654167241915	316.1270477604719	1021.469012012852	2033.284468641128	312.8459865464948	971.1875459910211	2047.637907151056	339.69749102042	1017.16900760327	2119.458745686058	1043.260514037391	902.2452501282372	2159.098931511785	158.9878089825754	1017.513825979326	2115.178153156199	188.8473635958948	915.78392159917	2027.475036014747	1009.451679994373	1027.260058738471	2154.111445919125	366.3288482830127	945.7433178874849	2129.69915352068	393.8956954998933	988.1116146077652	2204.891153684687	428.2439517340109	936.4265495492276	2181.484012732246	455.6493108678779	976.4016630034912	2324.128962656362	683.4023669682637	902.8168417548738	2271.71334808067	645.5150137466712	932.2937189340333	2251.589125335778	762.8534514819532	879.7049379787288	2200.293682730734	725.2276469703667	904.3544654710931	2208.009749286859	944.9801466873913	1170.886368252526	1837.093428647862	77.22002972669864	1123.388549484829	1684.502784408934	129.7027877964626	1036.57007325114	1692.973675358833	128.5798820300141	1091.673495179163	1709.730624613304	162.4955192289584	1052.362654626455	2162.956765894645	1016.529455542824	1216.943950852674	1858.930417758497	40.07703362495202	1074.208116585042	1791.224077763166	41.45538578956601	1167.363328514717	2031.631524841214	1002.206777834053	1104.241610721335	1783.451624048373	225.58334764222	1138.694789691053	1774.192092555018	247.2081743943556	1093.146359263334	1820.321308507231	297.5158625334847	1163.594569519101	1805.77678582654	317.7140749245642	1116.302330699389	2030.75218902942	613.856295349173	1223.973603629451	1969.445713953591	626.942634766059	1186.576894579917	2042.476990034156	721.8646675839879	1236.86140839047	1986.928286859843	733.5778591072735	1197.769384671383	
3378	22.51333333333334	2211.188309387466	970.6792131977762	951.1057246874602	2034.971012904723	289.3985787103479	1024.196207222598	2060.804030527616	289.4781304181583	973.3000745114782	2073.390987761703	316.7646891945809	1019.541610853617	2121.894235573329	1049.929885871472	902.8194641700931	2201.262695352475	147.1368060086716	1014.356118901961	2152.920229388404	174.4640907617611	913.972551590645	2029.95613892641	1014.250102101771	1028.570560248508	2176.71270469721	353.4310089618711	946.3635759135544	2150.387552288926	378.8031858681007	989.0162627736162	2221.907552903476	419.7441633083525	936.7932599074117	2196.555131239121	445.0237798849307	977.0520650578403	2328.962694922203	692.0595195227269	903.3616593215052	2276.673027336	653.2007361585761	931.700053031466	2255.635028221594	770.6459790338708	880.0894184939193	2204.570658443557	732.0890521760481	903.6532765843242	2210.879684383153	948.6581905115637	1170.519183776798	1814.509775995113	80.03463754068608	1126.660950759841	1666.011164597649	145.4523928550736	1041.244720624311	1674.488485419219	142.3878967397724	1096.268667140811	1693.493050524813	175.8903914265241	1057.728931944635	2170.377685593915	1020.495180111742	1215.777138396203	1833.079361232241	41.78921760438505	1076.206093483299	1765.85421513663	45.37876938058052	1169.300184380357	2034.954520046781	1006.638735870537	1106.100579264281	1764.759471544464	235.1472527076302	1142.028828110982	1755.906721844349	255.5907568313313	1095.849468669445	1801.102470791296	307.8670436399166	1165.508339712355	1786.630836018803	326.8728161997757	1117.716880583339	2017.967742513197	623.0421668782591	1222.146449239292	1958.808509182076	639.3798426523596	1182.841769312145	2035.306008844028	730.1123343054207	1235.39008319899	1981.643133844397	744.8757675834986	1194.697616376372	
3379	22.52	2214.190406472089	975.8881287761935	951.8174428072647	2065.203808010598	263.459972572111	1026.850521888794	2089.949833694807	266.6545692520385	975.3818631402663	2100.707441136558	294.3351841966857	1021.817066118715	2124.81063140323	1056.258587395072	903.6157613398243	2243.761745558827	137.2815128884538	1011.758644580038	2191.362510389122	161.4015700560643	912.5666364774801	2032.579249578082	1019.021500465103	1029.762224313133	2199.930333807424	340.5734010216755	946.8865096284158	2172.018472448035	363.6662552345688	989.8340762821505	2239.270628673515	410.6500074817914	936.8962387885844	2212.285217410252	433.713042853078	977.4685871365323	2332.743769346174	699.1315569840526	903.7385877075316	2280.457611602841	659.4638793237824	930.95497878265	2258.896876817198	777.1825456694231	880.5639086585172	2207.955355891369	737.90092435305	903.1860146231357	2213.650808774714	952.5269240453441	1170.472251949605	1792.935567002636	84.13275069804945	1130.042309727927	1649.160741414305	162.1375928530805	1045.922936972239	1657.542260509823	157.2678467900025	1100.867200842796	1678.83503660674	190.1110424118006	1063.050821607955	2177.855743262162	1024.255423660056	1214.555381185875	1808.317029767475	44.53633276902898	1078.557588204352	1741.619611143402	50.74052037857798	1171.456950282943	2038.438594505546	1011.397750956395	1107.804661711143	1747.513828486058	245.3720486105466	1145.442861428602	1738.9814107735	264.6029095800782	1098.659131295373	1783.361570480792	318.9066436769825	1167.420228795078	1768.841684906484	336.6931705113087	1119.176894491044	2006.11925115123	632.9404761247774	1220.133896771737	1949.305258529038	652.4238165173836	1178.841549778617	2028.856581018832	738.8522241857063	1233.918288179173	1977.308833120343	756.5566754970085	1191.522976559949	
3380	22.52666666666667	2217.120896195388	980.3169189724433	952.791727591783	2097.0131252945	238.6517374478001	1029.157964131327	2120.514948086629	244.6400942865091	977.199591640514	2129.312995569333	272.7056708115046	1023.736237145215	2128.00570343422	1062.151714448565	904.6077734671215	2286.132982403763	129.5296081724774	1009.897185298098	2230.302285208045	149.7422088496622	911.6337355052344	2035.251605302494	1023.656405101503	1030.814978742219	2223.640864152707	327.9329294299704	947.2000008483981	2194.417573470307	348.7030620002486	990.4209516758324	2256.940520181021	401.1057701798741	936.6382350475236	2228.589553202535	421.9037614974949	977.5230222852127	2335.410676402221	704.4471895715574	903.9391506853306	2283.043731791403	664.1646258557138	930.1663675449961	2261.278252457789	782.2727456960095	881.103870360547	2210.376909563397	742.498253271928	903.0303658600266	2216.277510446504	956.4442636977506	1170.679034374409	1772.211995082369	89.72799545283699	1133.365941364746	1633.701057557164	179.532349755987	1050.249990154187	1641.864325892445	173.0841539903234	1105.127674352923	1665.426169333914	205.0238011763317	1067.963291617602	2185.12866070053	1027.842274058735	1213.282188769876	1784.579078776255	48.55368051741566	1081.152437636673	1718.438399881874	57.74157088187336	1173.683336682868	2041.992143047179	1016.410222070805	1109.305481151307	1731.56338347489	256.2454161398767	1148.698479646233	1723.294585261404	274.3170026066945	1101.36593917693	1767.083480499885	330.513806063057	1169.18939623642	1752.450389128588	347.1497786590162	1120.55702451236	1995.50158871168	643.1810745805564	1218.073947934773	1941.065318650566	665.6407690447053	1174.902122411582	2023.310267809332	747.7775931830632	1232.560455835381	1973.966700404188	768.2535861360341	1188.508946709284	
3381	22.53333333333333	2219.85575818248	983.9694290104111	953.9007147461324	2129.966282888259	215.2774931723318	1030.891584914038	2152.207926945089	223.694984828931	978.5581967182635	2158.851667952745	252.1482920242422	1025.084814153249	2131.28470102125	1067.52794563945	905.7472614026011	2327.878146223148	123.9192437478936	1008.915012775197	2269.486048229967	139.5608057528918	911.2294057936813	2037.879146699691	1028.039348650608	1031.704853338404	2247.658346287577	315.6924744512203	947.2175261667785	2217.334635838315	334.1269958316021	990.6539656908386	2274.807404014762	391.2865877402958	935.9501974950947	2245.299558971756	409.8037262098409	977.108652356744	2336.909593018988	707.906928425622	903.9524932094859	2284.417419157741	667.2451913710855	929.4429581181353	2262.70465808427	785.7920290643966	881.6578489207461	2211.788156705508	745.7873222215617	903.2270839876984	2218.734591063025	960.2765081861634	1171.033033225045	1752.148422438886	96.97514313904286	1136.439175869896	1619.333018402936	197.4267033308053	1053.866301819828	1627.140943962814	189.7004218450184	1108.702013520703	1652.899011056309	220.5078091207858	1072.102337807392	2191.959704704294	1031.307110733103	1211.961971276821	1761.755963796676	54.04467206919512	1083.824986902039	1696.17697135771	66.52858187381047	1175.789045773808	2045.512497638692	1021.572716704803	1110.556657688115	1716.722115001211	267.7626500246701	1151.549692718022	1708.699555553731	284.8141449876223	1103.749883662523	1752.218509466662	342.568396241517	1170.675308866598	1737.474926296574	358.2189120135089	1121.728395962688	1986.384830392254	653.3529370104851	1216.124380687179	1934.188766063754	678.5634144513467	1171.359620683005	2018.831237227835	756.5507120679216	1231.431887683136	1971.621503018549	779.5774844031147	1185.926516433874	
